<mxfile host="app.diagrams.net" modified="2024-04-24T12:57:18.252Z" agent="Mozilla/5.0 (Windows NT 10.0; Win64; x64) AppleWebKit/537.36 (KHTML, like Gecko) Chrome/124.0.0.0 Safari/537.36" etag="-lZCxIosBsltzpToHz8w" version="22.1.19" type="device">
  <diagram id="C5RBs43oDa-KdzZeNtuy" name="Page-1">
    <mxGraphModel dx="800" dy="387" grid="1" gridSize="10" guides="1" tooltips="1" connect="1" arrows="1" fold="1" page="1" pageScale="1" pageWidth="827" pageHeight="1169" math="0" shadow="0">
      <root>
        <mxCell id="WIyWlLk6GJQsqaUBKTNV-0" />
        <mxCell id="WIyWlLk6GJQsqaUBKTNV-1" parent="WIyWlLk6GJQsqaUBKTNV-0" />
        <mxCell id="AIU4u_PUEHE1dGeywskq-56" style="edgeStyle=orthogonalEdgeStyle;rounded=0;orthogonalLoop=1;jettySize=auto;html=1;exitX=0.5;exitY=0;exitDx=0;exitDy=0;entryX=0.5;entryY=1;entryDx=0;entryDy=0;" edge="1" parent="WIyWlLk6GJQsqaUBKTNV-1" source="AIU4u_PUEHE1dGeywskq-48" target="AIU4u_PUEHE1dGeywskq-53">
          <mxGeometry relative="1" as="geometry" />
        </mxCell>
        <mxCell id="AIU4u_PUEHE1dGeywskq-57" style="edgeStyle=orthogonalEdgeStyle;rounded=0;orthogonalLoop=1;jettySize=auto;html=1;exitX=0.25;exitY=0;exitDx=0;exitDy=0;entryX=0.5;entryY=1;entryDx=0;entryDy=0;" edge="1" parent="WIyWlLk6GJQsqaUBKTNV-1" source="AIU4u_PUEHE1dGeywskq-48" target="AIU4u_PUEHE1dGeywskq-55">
          <mxGeometry relative="1" as="geometry" />
        </mxCell>
        <mxCell id="AIU4u_PUEHE1dGeywskq-58" style="edgeStyle=orthogonalEdgeStyle;rounded=0;orthogonalLoop=1;jettySize=auto;html=1;exitX=0.75;exitY=0;exitDx=0;exitDy=0;entryX=0.5;entryY=1;entryDx=0;entryDy=0;" edge="1" parent="WIyWlLk6GJQsqaUBKTNV-1" source="AIU4u_PUEHE1dGeywskq-48" target="AIU4u_PUEHE1dGeywskq-54">
          <mxGeometry relative="1" as="geometry" />
        </mxCell>
        <mxCell id="AIU4u_PUEHE1dGeywskq-60" style="edgeStyle=orthogonalEdgeStyle;rounded=0;orthogonalLoop=1;jettySize=auto;html=1;exitX=0;exitY=0.5;exitDx=0;exitDy=0;entryX=1;entryY=0.5;entryDx=0;entryDy=0;" edge="1" parent="WIyWlLk6GJQsqaUBKTNV-1" source="AIU4u_PUEHE1dGeywskq-48" target="AIU4u_PUEHE1dGeywskq-59">
          <mxGeometry relative="1" as="geometry" />
        </mxCell>
        <mxCell id="AIU4u_PUEHE1dGeywskq-68" style="edgeStyle=orthogonalEdgeStyle;rounded=0;orthogonalLoop=1;jettySize=auto;html=1;exitX=0.5;exitY=1;exitDx=0;exitDy=0;entryX=0.5;entryY=0;entryDx=0;entryDy=0;" edge="1" parent="WIyWlLk6GJQsqaUBKTNV-1" source="AIU4u_PUEHE1dGeywskq-48" target="AIU4u_PUEHE1dGeywskq-67">
          <mxGeometry relative="1" as="geometry" />
        </mxCell>
        <mxCell id="AIU4u_PUEHE1dGeywskq-48" value="Pegawai" style="rounded=0;whiteSpace=wrap;html=1;" vertex="1" parent="WIyWlLk6GJQsqaUBKTNV-1">
          <mxGeometry x="410" y="310" width="120" height="60" as="geometry" />
        </mxCell>
        <mxCell id="AIU4u_PUEHE1dGeywskq-53" value="nip" style="ellipse;whiteSpace=wrap;html=1;" vertex="1" parent="WIyWlLk6GJQsqaUBKTNV-1">
          <mxGeometry x="435" y="200" width="70" height="50" as="geometry" />
        </mxCell>
        <mxCell id="AIU4u_PUEHE1dGeywskq-54" value="nama" style="ellipse;whiteSpace=wrap;html=1;" vertex="1" parent="WIyWlLk6GJQsqaUBKTNV-1">
          <mxGeometry x="530" y="200" width="80" height="50" as="geometry" />
        </mxCell>
        <mxCell id="AIU4u_PUEHE1dGeywskq-55" value="satuan_kerja_id" style="ellipse;whiteSpace=wrap;html=1;" vertex="1" parent="WIyWlLk6GJQsqaUBKTNV-1">
          <mxGeometry x="304" y="190" width="110" height="70" as="geometry" />
        </mxCell>
        <mxCell id="AIU4u_PUEHE1dGeywskq-66" style="edgeStyle=orthogonalEdgeStyle;rounded=0;orthogonalLoop=1;jettySize=auto;html=1;exitX=0;exitY=0.5;exitDx=0;exitDy=0;entryX=1;entryY=0.5;entryDx=0;entryDy=0;" edge="1" parent="WIyWlLk6GJQsqaUBKTNV-1" source="AIU4u_PUEHE1dGeywskq-59" target="AIU4u_PUEHE1dGeywskq-61">
          <mxGeometry relative="1" as="geometry" />
        </mxCell>
        <mxCell id="AIU4u_PUEHE1dGeywskq-59" value="memiliki" style="rhombus;whiteSpace=wrap;html=1;" vertex="1" parent="WIyWlLk6GJQsqaUBKTNV-1">
          <mxGeometry x="260" y="300" width="80" height="80" as="geometry" />
        </mxCell>
        <mxCell id="AIU4u_PUEHE1dGeywskq-64" style="edgeStyle=orthogonalEdgeStyle;rounded=0;orthogonalLoop=1;jettySize=auto;html=1;exitX=0.25;exitY=0;exitDx=0;exitDy=0;entryX=0.5;entryY=1;entryDx=0;entryDy=0;" edge="1" parent="WIyWlLk6GJQsqaUBKTNV-1" source="AIU4u_PUEHE1dGeywskq-61" target="AIU4u_PUEHE1dGeywskq-62">
          <mxGeometry relative="1" as="geometry" />
        </mxCell>
        <mxCell id="AIU4u_PUEHE1dGeywskq-65" style="edgeStyle=orthogonalEdgeStyle;rounded=0;orthogonalLoop=1;jettySize=auto;html=1;exitX=0.75;exitY=0;exitDx=0;exitDy=0;entryX=0.5;entryY=1;entryDx=0;entryDy=0;" edge="1" parent="WIyWlLk6GJQsqaUBKTNV-1" source="AIU4u_PUEHE1dGeywskq-61" target="AIU4u_PUEHE1dGeywskq-63">
          <mxGeometry relative="1" as="geometry" />
        </mxCell>
        <mxCell id="AIU4u_PUEHE1dGeywskq-61" value="Satuan Kerja" style="rounded=0;whiteSpace=wrap;html=1;" vertex="1" parent="WIyWlLk6GJQsqaUBKTNV-1">
          <mxGeometry x="90" y="310" width="120" height="60" as="geometry" />
        </mxCell>
        <mxCell id="AIU4u_PUEHE1dGeywskq-62" value="id_satuan_kerja" style="ellipse;whiteSpace=wrap;html=1;" vertex="1" parent="WIyWlLk6GJQsqaUBKTNV-1">
          <mxGeometry x="30" y="220" width="100" height="50" as="geometry" />
        </mxCell>
        <mxCell id="AIU4u_PUEHE1dGeywskq-63" value="satuan kerja" style="ellipse;whiteSpace=wrap;html=1;" vertex="1" parent="WIyWlLk6GJQsqaUBKTNV-1">
          <mxGeometry x="170" y="220" width="80" height="50" as="geometry" />
        </mxCell>
        <mxCell id="AIU4u_PUEHE1dGeywskq-70" style="edgeStyle=orthogonalEdgeStyle;rounded=0;orthogonalLoop=1;jettySize=auto;html=1;exitX=0.5;exitY=1;exitDx=0;exitDy=0;" edge="1" parent="WIyWlLk6GJQsqaUBKTNV-1" source="AIU4u_PUEHE1dGeywskq-67" target="AIU4u_PUEHE1dGeywskq-69">
          <mxGeometry relative="1" as="geometry" />
        </mxCell>
        <mxCell id="AIU4u_PUEHE1dGeywskq-67" value="mengajukan" style="rhombus;whiteSpace=wrap;html=1;" vertex="1" parent="WIyWlLk6GJQsqaUBKTNV-1">
          <mxGeometry x="420" y="410" width="100" height="90" as="geometry" />
        </mxCell>
        <mxCell id="AIU4u_PUEHE1dGeywskq-75" style="edgeStyle=orthogonalEdgeStyle;rounded=0;orthogonalLoop=1;jettySize=auto;html=1;exitX=0;exitY=0.5;exitDx=0;exitDy=0;entryX=1;entryY=0.5;entryDx=0;entryDy=0;" edge="1" parent="WIyWlLk6GJQsqaUBKTNV-1" source="AIU4u_PUEHE1dGeywskq-69" target="AIU4u_PUEHE1dGeywskq-71">
          <mxGeometry relative="1" as="geometry" />
        </mxCell>
        <mxCell id="AIU4u_PUEHE1dGeywskq-76" style="edgeStyle=orthogonalEdgeStyle;rounded=0;orthogonalLoop=1;jettySize=auto;html=1;exitX=0;exitY=0;exitDx=0;exitDy=0;entryX=1;entryY=0.5;entryDx=0;entryDy=0;" edge="1" parent="WIyWlLk6GJQsqaUBKTNV-1" source="AIU4u_PUEHE1dGeywskq-69" target="AIU4u_PUEHE1dGeywskq-72">
          <mxGeometry relative="1" as="geometry" />
        </mxCell>
        <mxCell id="AIU4u_PUEHE1dGeywskq-77" style="edgeStyle=orthogonalEdgeStyle;rounded=0;orthogonalLoop=1;jettySize=auto;html=1;exitX=0;exitY=0.75;exitDx=0;exitDy=0;entryX=1;entryY=0.5;entryDx=0;entryDy=0;" edge="1" parent="WIyWlLk6GJQsqaUBKTNV-1" source="AIU4u_PUEHE1dGeywskq-69" target="AIU4u_PUEHE1dGeywskq-73">
          <mxGeometry relative="1" as="geometry" />
        </mxCell>
        <mxCell id="AIU4u_PUEHE1dGeywskq-78" style="edgeStyle=orthogonalEdgeStyle;rounded=0;orthogonalLoop=1;jettySize=auto;html=1;exitX=0;exitY=1;exitDx=0;exitDy=0;entryX=1;entryY=0.5;entryDx=0;entryDy=0;" edge="1" parent="WIyWlLk6GJQsqaUBKTNV-1" source="AIU4u_PUEHE1dGeywskq-69" target="AIU4u_PUEHE1dGeywskq-74">
          <mxGeometry relative="1" as="geometry" />
        </mxCell>
        <mxCell id="AIU4u_PUEHE1dGeywskq-80" style="edgeStyle=orthogonalEdgeStyle;rounded=0;orthogonalLoop=1;jettySize=auto;html=1;exitX=1;exitY=0.5;exitDx=0;exitDy=0;entryX=0;entryY=0.5;entryDx=0;entryDy=0;" edge="1" parent="WIyWlLk6GJQsqaUBKTNV-1" source="AIU4u_PUEHE1dGeywskq-69" target="AIU4u_PUEHE1dGeywskq-79">
          <mxGeometry relative="1" as="geometry" />
        </mxCell>
        <mxCell id="AIU4u_PUEHE1dGeywskq-69" value="Pengajuan" style="rounded=0;whiteSpace=wrap;html=1;" vertex="1" parent="WIyWlLk6GJQsqaUBKTNV-1">
          <mxGeometry x="410" y="540" width="120" height="60" as="geometry" />
        </mxCell>
        <mxCell id="AIU4u_PUEHE1dGeywskq-71" value="no pengajuan" style="ellipse;whiteSpace=wrap;html=1;" vertex="1" parent="WIyWlLk6GJQsqaUBKTNV-1">
          <mxGeometry x="140" y="535" width="110" height="70" as="geometry" />
        </mxCell>
        <mxCell id="AIU4u_PUEHE1dGeywskq-72" value="tanggal awal" style="ellipse;whiteSpace=wrap;html=1;" vertex="1" parent="WIyWlLk6GJQsqaUBKTNV-1">
          <mxGeometry x="270" y="465" width="110" height="70" as="geometry" />
        </mxCell>
        <mxCell id="AIU4u_PUEHE1dGeywskq-73" value="tanggal akhir" style="ellipse;whiteSpace=wrap;html=1;" vertex="1" parent="WIyWlLk6GJQsqaUBKTNV-1">
          <mxGeometry x="260" y="605" width="110" height="70" as="geometry" />
        </mxCell>
        <mxCell id="AIU4u_PUEHE1dGeywskq-74" value="status_id" style="ellipse;whiteSpace=wrap;html=1;" vertex="1" parent="WIyWlLk6GJQsqaUBKTNV-1">
          <mxGeometry x="140" y="660" width="110" height="70" as="geometry" />
        </mxCell>
        <mxCell id="AIU4u_PUEHE1dGeywskq-82" style="edgeStyle=orthogonalEdgeStyle;rounded=0;orthogonalLoop=1;jettySize=auto;html=1;exitX=0.5;exitY=1;exitDx=0;exitDy=0;entryX=0.5;entryY=0;entryDx=0;entryDy=0;" edge="1" parent="WIyWlLk6GJQsqaUBKTNV-1" source="AIU4u_PUEHE1dGeywskq-79" target="AIU4u_PUEHE1dGeywskq-81">
          <mxGeometry relative="1" as="geometry" />
        </mxCell>
        <mxCell id="AIU4u_PUEHE1dGeywskq-79" value="terdapat" style="rhombus;whiteSpace=wrap;html=1;" vertex="1" parent="WIyWlLk6GJQsqaUBKTNV-1">
          <mxGeometry x="580" y="525" width="100" height="90" as="geometry" />
        </mxCell>
        <mxCell id="AIU4u_PUEHE1dGeywskq-85" style="edgeStyle=orthogonalEdgeStyle;rounded=0;orthogonalLoop=1;jettySize=auto;html=1;exitX=0.75;exitY=1;exitDx=0;exitDy=0;entryX=0.5;entryY=0;entryDx=0;entryDy=0;" edge="1" parent="WIyWlLk6GJQsqaUBKTNV-1" source="AIU4u_PUEHE1dGeywskq-81" target="AIU4u_PUEHE1dGeywskq-84">
          <mxGeometry relative="1" as="geometry" />
        </mxCell>
        <mxCell id="AIU4u_PUEHE1dGeywskq-86" style="edgeStyle=orthogonalEdgeStyle;rounded=0;orthogonalLoop=1;jettySize=auto;html=1;exitX=0.25;exitY=1;exitDx=0;exitDy=0;entryX=0.5;entryY=0;entryDx=0;entryDy=0;" edge="1" parent="WIyWlLk6GJQsqaUBKTNV-1" source="AIU4u_PUEHE1dGeywskq-81" target="AIU4u_PUEHE1dGeywskq-83">
          <mxGeometry relative="1" as="geometry" />
        </mxCell>
        <mxCell id="AIU4u_PUEHE1dGeywskq-81" value="Status" style="rounded=0;whiteSpace=wrap;html=1;" vertex="1" parent="WIyWlLk6GJQsqaUBKTNV-1">
          <mxGeometry x="570" y="665" width="120" height="60" as="geometry" />
        </mxCell>
        <mxCell id="AIU4u_PUEHE1dGeywskq-83" value="id_status" style="ellipse;whiteSpace=wrap;html=1;" vertex="1" parent="WIyWlLk6GJQsqaUBKTNV-1">
          <mxGeometry x="527.5" y="770" width="85" height="50" as="geometry" />
        </mxCell>
        <mxCell id="AIU4u_PUEHE1dGeywskq-84" value="status" style="ellipse;whiteSpace=wrap;html=1;" vertex="1" parent="WIyWlLk6GJQsqaUBKTNV-1">
          <mxGeometry x="650" y="770" width="85" height="50" as="geometry" />
        </mxCell>
      </root>
    </mxGraphModel>
  </diagram>
</mxfile>
